<?xml version="1.0" encoding="utf-8"?>
<svg width="256" height="256" viewBox="0 0 256 256" fill="none" xmlns="http://www.w3.org/2000/svg">
  <g>
    <g transform="translate(23 48)">
      <g transform="translate(0 48.756)">
        <path d="M0.0130606 1.48616C-0.107281 0.672165 0.622452 -0.0955658 1.44182 0.00971222C7.52304 0.0996132 13.5095 1.43737 19.3449 3.06272C34.4161 7.48188 48.3325 15.2211 60.984 24.4496C70.9239 31.7035 80.1033 39.9794 88.4224 49.0487C89.2725 50.0913 90.3325 50.9617 91.0443 52.1146C91.4694 52.79 91.5206 53.6091 91.5129 54.3871C91.5052 66.8869 91.5001 79.3842 91.5027 91.8815C91.4668 94.7138 91.5693 97.546 91.454 100.378C90.0099 99.3922 88.7859 98.1262 87.37 97.1043C85.529 95.882 83.8698 94.4004 81.9571 93.2835C66.1613 83.0587 48.4119 76.0282 30.0991 71.8889C20.5919 69.7629 10.908 68.4737 1.18321 67.95C0.456023 68.0424 -0.109849 67.4416 0.025876 66.7149C-0.00229454 44.9711 0.0335503 23.2299 0.0130606 1.48616Z" fill="#AFD1F6" transform="translate(11.986 0.015)" />
        <path d="M70.1517 3.71458C76.2406 1.79648 82.5343 0.409828 88.9203 0.0272789C89.7396 0.0298157 90.8304 -0.201298 91.3451 0.638405C91.5602 1.50626 91.4322 2.41782 91.4603 3.30632C91.4348 24.5416 91.468 45.777 91.4423 67.0124C91.4577 67.4258 91.1351 67.8983 90.6973 67.9137C83.4152 68.3065 76.1331 68.9767 68.9636 70.3633C54.292 72.8951 39.9582 77.3887 26.4796 83.7284C19.8607 86.8765 13.4416 90.474 7.40648 94.6466C4.87922 96.5082 2.33915 98.3672 0.0321579 100.506C-0.0139923 85.1433 0.0244141 69.7804 0.0142822 54.4175C-0.134201 53.0643 0.90522 52.0937 1.7374 51.195C7.81869 44.203 14.581 37.835 21.6301 31.8392C29.7648 25.0167 38.3912 18.7462 47.6499 13.5388C54.8091 9.54594 62.3268 6.17194 70.1517 3.71458Z" fill="#64A1E6" transform="translate(107.571 0)" />
        <path d="M1.48284 0.126549C3.15576 -0.0359421 4.83511 -0.0037384 6.51447 0.0284042C7.19732 0.0414963 7.88018 0.0546341 8.56265 0.0546341C8.54765 5.99645 8.56204 11.9401 8.5765 17.8847L8.5766 17.9259C8.59158 24.1059 8.60655 30.2869 8.58829 36.468C8.60755 37.5068 8.58569 38.5452 8.56384 39.5833L8.56372 39.5887L8.56365 39.5921C8.53321 41.0376 8.50277 42.4825 8.58316 43.9274C8.49528 45.7216 8.52843 47.516 8.56165 49.3102L8.56184 49.3206C8.58077 50.3448 8.59969 51.369 8.59595 52.3932C8.56265 53.3022 9.49216 53.9441 10.3372 53.9287C33.6506 54.9455 56.7668 60.7846 77.7297 71.0891C84.0234 74.2396 90.1456 77.7832 95.8146 81.9738C97.374 83.2423 99.0665 84.3721 100.398 85.8972C102.897 88.6909 107.734 88.8964 110.376 86.1951C112.701 83.5041 115.764 81.6246 118.613 79.5549C130.328 71.6668 143.376 65.9483 156.788 61.6577C167.949 58.163 179.454 55.7287 191.091 54.5706C194.34 54.1958 197.608 54.0931 200.867 53.862C201.774 53.9108 202.511 53.0147 202.36 52.1287C202.366 41.8419 202.365 31.5538 202.363 21.2652C202.363 17.1745 202.363 13.0838 202.363 8.99302C202.371 7.98009 202.366 6.96706 202.361 5.95413L202.361 5.91801L202.361 5.90791C202.352 3.95766 202.343 2.00746 202.421 0.0571747C203.173 0.0620346 203.927 0.0455627 204.68 0.0290375L204.681 0.0290222L204.682 0.0289917C206.325 -0.00694275 207.969 -0.0428391 209.601 0.141884C210.482 0.452644 211.048 1.38986 210.994 2.31676C210.978 15.541 210.982 28.7663 210.986 41.9914C210.988 49.9105 210.991 57.8295 210.989 65.7482C210.974 66.0117 210.982 66.2819 210.99 66.5533L210.99 66.5546C211.01 67.2081 211.03 67.8685 210.728 68.4596C210.438 69.0759 209.719 69.4405 209.056 69.3661C202.163 68.6214 195.232 68.2928 188.3 68.3775C182.488 68.339 176.699 68.8859 170.927 69.4843C164.139 70.2314 157.423 71.5385 150.822 73.2666C144.741 74.8175 138.798 76.8897 133.032 79.3649C128.139 81.6503 123.294 84.105 118.905 87.2839C117.546 88.3007 116.071 89.274 115.172 90.7555C113.882 92.8739 111.738 94.4659 109.339 95.0745C107.89 95.4752 106.374 95.4752 104.884 95.475L104.828 95.475C102.203 95.452 99.535 94.5969 97.589 92.7865C96.3216 91.798 95.7992 90.1752 94.5804 89.1506C92.1659 87.1246 89.485 85.4582 86.794 83.8329C77.4097 78.533 67.1676 74.8611 56.6952 72.4192C38.792 68.2106 20.1593 67.4172 1.90794 69.402C1.05016 69.4405 0.330639 68.7986 0.066989 68.0155C-0.00726778 65.4349 0.00329658 62.8524 0.0138609 60.2704L0.0139327 60.2523C0.0204158 58.655 0.0268989 57.058 0.013172 55.4617C0.0142437 49.4547 0.0136313 43.4482 0.0130189 37.4416C0.0121002 28.4767 0.0111816 19.5121 0.0157748 10.5465C0.0416498 9.38458 0.0284826 8.22117 0.0153155 7.05791L0.0153107 7.05766C-0.0054305 5.22619 -0.0261717 3.39528 0.105342 1.57217C0.17447 0.873726 0.835048 0.313896 1.48284 0.126549L1.48284 0.126549Z" fill="#2459A0" fill-rule="evenodd" transform="translate(0 17.685)" />
      </g>
      <path d="M121.721 1.7065C121.515 0.944528 121.232 0.182565 120.671 0.0274441C120.481 -0.0230966 120.264 -0.00626352 120.006 0.0982751C117.949 1.02882 116.918 1.79078 118.427 5.00719C119.321 7.04024 118.427 9.07327 116.577 9.15757L43.2323 9.15757C42.4789 9.15757 41.6567 9.24186 40.9006 9.24186C40.2847 9.24186 40.0097 9.15757 39.666 8.22702C39.0611 6.48632 39.5734 5.07122 40.1106 3.58767L40.1472 3.48663C40.6256 2.13127 39.9409 1.36934 39.2535 0.607376C38.5001 -0.070304 37.8127 -0.154593 36.9906 0.438802C36.5048 0.835951 36.4852 1.39113 36.4659 1.93939C36.4607 2.08928 36.4554 2.23865 36.4407 2.38414C36.3719 3.31469 36.0309 4.16093 35.3436 4.24523C34.7197 4.38761 34.6124 3.77404 34.5159 3.22184C34.4958 3.10721 34.4763 2.99525 34.4527 2.89324C34.1777 1.79078 33.6965 1.53792 32.8743 2.21556C32.1869 2.72467 32.0495 3.39897 32.0495 4.41718C32.114 10.8513 31.2118 13.1292 29.0586 18.5656C28.918 18.9207 28.772 19.2892 28.6206 19.6733C28.2769 20.6038 27.7958 21.0253 26.9736 21.0253C23.9261 20.9421 20.8787 21.1085 17.8305 21.2749L17.8303 21.2749L17.71 21.2815C15.9282 21.4501 15.9282 21.3658 15.8594 23.5674C15.8594 23.6581 15.8683 23.757 15.8772 23.8572C15.9182 24.3164 15.9619 24.8049 15.172 24.6665C11.1365 23.9318 7.03711 23.4322 2.93544 22.7928C2.47759 22.2785 1.98336 21.7972 1.22915 22.0285C-0.485826 23.9604 -0.417103 24.8843 1.504 26.0609C2.80676 26.8161 3.97484 27.6557 4.86531 29.2538C7.61098 33.8728 11.3158 36.8971 15.9139 38.0737C17.2854 38.4075 17.5602 38.9975 17.5602 40.5923C17.5439 43.1686 17.5314 46.9949 17.522 51.4769Q33.1383 57.9511 48.8813 69.4352Q57.3845 75.6409 65.2209 82.84L65.2209 48.0251C65.2209 47.2672 65.8887 46.6529 66.7126 46.6529L67.4584 46.6529L67.4584 46.3099C67.4584 45.7415 67.959 45.2808 68.577 45.2808L89.4586 45.2808C90.0765 45.2808 90.5772 45.7415 90.5772 46.3099L90.5772 46.6529L91.323 46.6529C92.1469 46.6529 92.8145 47.2672 92.8145 48.0251L92.8145 82.1816Q95.6174 79.638 98.6522 77.0565Q112.306 65.6045 125.462 58.2048C130.458 55.4184 135.439 53.0237 140.407 51.0207C140.398 46.7004 140.386 42.9971 140.37 40.4237C140.37 38.9975 140.714 38.4075 141.879 38.0737C145.79 37.0656 149.152 34.8808 151.828 31.1857C153.406 28.8323 154.915 26.3138 157.523 25.5552C157.798 25.4709 158.142 25.0528 158.004 24.6314C157.661 23.6233 157.729 22.3623 156.699 21.86C156.038 21.9339 155.481 22.2649 155.029 22.8003C152.834 23.088 150.689 23.2683 148.547 23.736C146.9 24.1574 145.118 23.8203 143.471 24.6665C142.577 25.1757 141.893 24.5822 142.099 23.1426C142.305 21.7872 141.755 21.3658 140.658 21.2815C139.588 21.2536 138.511 21.1974 137.428 21.141L137.428 21.1409C135.247 21.0273 133.046 20.9126 130.847 21.0253C130.16 21.0253 129.816 20.6881 129.541 19.9262C126.797 13.6619 126.044 11.1872 125.906 4.16093C125.906 2.89324 125.631 2.38414 124.672 1.9627C123.854 1.6463 123.722 2.22399 123.594 2.78323L123.594 2.78335C123.55 2.97485 123.507 3.16419 123.437 3.31469C123.398 3.41146 123.361 3.51736 123.324 3.62428C123.166 4.07988 123.002 4.55371 122.612 4.41718C122.203 4.24522 121.721 3.7395 121.79 2.97753C121.79 2.87253 121.794 2.76258 121.798 2.6514L121.798 2.65092C121.811 2.31247 121.825 1.9627 121.721 1.7065Z" fill="#2459A0" fill-rule="evenodd" transform="translate(26.586 0)" />
      <path d="M43.6849 1.84909C43.417 1.6566 43.0561 1.56029 42.6023 1.56029C42.1367 1.56029 41.7795 1.65371 41.5307 1.8405C41.2818 2.02722 41.1574 2.26289 41.1574 2.54736C41.1515 2.86343 41.2898 3.10267 41.5723 3.26503C41.8549 3.42738 42.1909 3.55306 42.5803 3.64216L43.3884 3.83183C43.9096 3.94674 44.3729 4.11343 44.7785 4.3318C45.1841 4.55019 45.5032 4.83109 45.7361 5.17443C45.9687 5.51785 46.0852 5.9352 46.0852 6.42657C46.0822 7.23401 45.7739 7.87698 45.1605 8.35542C44.5471 8.83385 43.6915 9.07308 42.5936 9.07308C41.5013 9.07308 40.6302 8.82882 39.9801 8.34032C39.3303 7.85182 38.9936 7.13061 38.9701 6.17658L40.8103 6.17658C40.8425 6.61908 41.0205 6.95172 41.344 7.1744C41.6676 7.39711 42.0767 7.50848 42.5715 7.50848C43.0547 7.50848 43.4404 7.40787 43.7288 7.20673C44.0172 7.00558 44.1629 6.74413 44.1658 6.42228C44.1629 6.12341 44.0297 5.89353 43.7661 5.73261C43.5026 5.5717 43.1265 5.43379 42.6374 5.31884L41.658 5.07745C40.8997 4.89933 40.3009 4.61628 39.8617 4.22836C39.4225 3.84044 39.2042 3.32177 39.2072 2.67235C39.2042 2.13789 39.35 1.6702 39.6443 1.2694C39.9386 0.868546 40.3433 0.556713 40.8586 0.334082C41.374 0.111372 41.9595 0 42.6154 0C43.283 0 43.8664 0.112095 44.3655 0.336143C44.8649 0.560356 45.2535 0.872099 45.5318 1.27153C45.81 1.67093 45.9535 2.13357 45.9621 2.65939L44.1395 2.65939C44.1043 2.31172 43.9528 2.04161 43.6849 1.84909L43.6849 1.84909ZM52.8401 0.12068L52.8401 6.27576C52.8401 6.84468 52.7104 7.33818 52.4514 7.75629C52.1922 8.17438 51.8329 8.49765 51.3732 8.72609C50.9134 8.95455 50.3791 9.06876 49.77 9.06876C49.2284 9.06876 48.7371 8.97395 48.2964 8.78432C47.8558 8.59464 47.5066 8.3073 47.2489 7.92224C46.9913 7.53717 46.8639 7.05154 46.867 6.46538L48.7599 6.46538C48.7657 6.81594 48.869 7.08823 49.0695 7.28217C49.27 7.47614 49.5358 7.57309 49.8666 7.57309C50.5899 7.57309 50.9545 7.14066 50.9603 6.27576L50.9603 0.12068L52.8401 0.12068L52.8401 0.12068ZM54.0656 0.120678L61.453 0.120678L61.453 1.65946L58.6993 1.65946L58.6993 8.94807L56.8195 8.94807L56.8195 1.65946L54.0656 1.65946L54.0656 0.120678L54.0656 0.120678ZM70.1317 0.120674L70.1317 5.8533C70.1317 6.49697 69.9766 7.06021 69.6663 7.54293C69.3558 8.02569 68.9211 8.4014 68.3617 8.6701C67.8025 8.93874 67.1495 9.07307 66.403 9.07307C65.6563 9.07307 65.0033 8.93874 64.4441 8.6701C63.8847 8.4014 63.4499 8.02569 63.1395 7.54293C62.8292 7.06021 62.674 6.49697 62.674 5.8533L62.674 0.120674L64.5757 0.120674L64.5757 5.69381C64.5757 6.1967 64.7427 6.61195 65.0764 6.9395C65.4103 7.26709 65.8525 7.4309 66.403 7.4309C66.9563 7.4309 67.3991 7.26709 67.7315 6.9395C68.0638 6.61195 68.2301 6.1967 68.2301 5.69381L68.2301 0.120674L70.1317 0.120674L70.1317 0.120674ZM1.37419 7.30452C0.615147 7.30452 0 7.90823 0 8.65314L0 10.6761C0 11.421 0.615147 12.0247 1.37419 12.0247L27.8281 12.0247C28.5872 12.0247 29.2022 11.421 29.2022 10.6761L29.2022 8.65314C29.2022 7.90823 28.5872 7.30452 27.8281 7.30452L1.37419 7.30452L1.37419 7.30452ZM81.7661 7.30452C81.007 7.30452 80.392 7.90823 80.392 8.65314L80.392 10.6761C80.392 11.421 81.007 12.0247 81.7661 12.0247L108.22 12.0247C108.979 12.0247 109.594 11.421 109.594 10.6761L109.594 8.65314C109.594 7.90823 108.979 7.30452 108.22 7.30452L81.7661 7.30452L81.7661 7.30452ZM13.9166 16.3514C13.1576 16.3514 12.5424 16.955 12.5424 17.7L12.5424 19.0487C12.5424 19.7936 13.1576 20.3973 13.9166 20.3973L15.2909 20.3973C16.0499 20.3973 16.6651 19.7936 16.6651 19.0487L16.6651 17.7C16.6651 16.955 16.0499 16.3514 15.2909 16.3514L13.9166 16.3514L13.9166 16.3514ZM20.188 16.3514C19.4289 16.3514 18.8138 16.955 18.8138 17.7L18.8138 19.0487C18.8138 19.7936 19.4289 20.3973 20.188 20.3973L21.5621 20.3973C22.3213 20.3973 22.9364 19.7936 22.9364 19.0487L22.9364 17.7C22.9364 16.955 22.3213 16.3514 21.5621 16.3514L20.188 16.3514L20.188 16.3514ZM26.4593 16.3514C25.7001 16.3514 25.085 16.955 25.085 17.7L25.085 19.0487C25.085 19.7936 25.7001 20.3973 26.4593 20.3973L27.8334 20.3973C28.5925 20.3973 29.2077 19.7936 29.2077 19.0487L29.2077 17.7C29.2077 16.955 28.5925 16.3514 27.8334 16.3514L26.4593 16.3514L26.4593 16.3514ZM81.6462 15.0936C80.8871 15.0936 80.272 15.6972 80.272 16.4422L80.272 17.7909C80.272 18.5358 80.8871 19.1395 81.6462 19.1395L83.0204 19.1395C83.7795 19.1395 84.3947 18.5358 84.3947 17.7909L84.3947 16.4422C84.3947 15.6972 83.7795 15.0936 83.0204 15.0936L81.6462 15.0936L81.6462 15.0936ZM87.9173 15.0936C87.1584 15.0936 86.5432 15.6972 86.5432 16.4422L86.5432 17.7909C86.5432 18.5358 87.1584 19.1395 87.9173 19.1395L89.2918 19.1395C90.0508 19.1395 90.6659 18.5358 90.6659 17.7909L90.6659 16.4422C90.6659 15.6972 90.0508 15.0936 89.2918 15.0936L87.9173 15.0936L87.9173 15.0936ZM94.1887 15.0936C93.4297 15.0936 92.8145 15.6972 92.8145 16.4422L92.8145 17.7909C92.8145 18.5358 93.4297 19.1395 94.1887 19.1395L95.563 19.1395C96.3221 19.1395 96.9372 18.5358 96.9372 17.7909L96.9372 16.4422C96.9372 15.6972 96.3221 15.0936 95.563 15.0936L94.1887 15.0936L94.1887 15.0936Z" fill="#FFFFFF" fill-rule="evenodd" transform="translate(50.978 27.03)" />
    </g>
  </g>
</svg>